# 3ds Max Wavefront OBJ Exporter v0.99 - (c)2007 guruware
# File Created: 28.01.2021 13:32:19

mtllib Dice.mtl

#
# object Box001
#

v  -1.0000 -1.0000 1.0000
v  -1.0000 -1.0000 -1.0000
v  1.0000 -1.0000 -1.0000
v  1.0000 -1.0000 1.0000
v  -1.0000 1.0000 1.0000
v  1.0000 1.0000 1.0000
v  1.0000 1.0000 -1.0000
v  -1.0000 1.0000 -1.0000
# 8 vertices

vn 0.0000 -1.0000 -0.0000
vn 0.0000 1.0000 -0.0000
vn 0.0000 0.0000 1.0000
vn 1.0000 0.0000 -0.0000
vn 0.0000 0.0000 -1.0000
vn -1.0000 0.0000 -0.0000
# 6 vertex normals

vt 0.2544 0.0030 0.0000
vt 0.2544 0.3266 0.0000
vt 0.4980 0.3266 0.0000
vt 0.4980 0.0030 0.0000
vt 0.2553 0.6732 0.0000
vt 0.4989 0.6732 0.0000
vt 0.4989 0.9967 0.0000
vt 0.2553 0.9967 0.0000
vt 0.2544 0.3398 0.0000
vt 0.4980 0.3398 0.0000
vt 0.4980 0.6633 0.0000
vt 0.2544 0.6633 0.0000
vt 0.5045 0.3388 0.0000
vt 0.7481 0.3388 0.0000
vt 0.7481 0.6623 0.0000
vt 0.5045 0.6623 0.0000
vt 0.9994 0.3376 0.0000
vt 0.7558 0.3376 0.0000
vt 0.7558 0.6611 0.0000
vt 0.9994 0.6611 0.0000
vt 0.2475 0.3368 0.0000
vt 0.0039 0.3368 0.0000
vt 0.0039 0.6603 0.0000
vt 0.2475 0.6603 0.0000
# 24 texture coords

o Box001
g Box001
usemtl diceTexture
f 1/1/1 2/2/1 3/3/1 
f 3/3/1 4/4/1 1/1/1 
f 5/5/2 6/6/2 7/7/2 
f 7/7/2 8/8/2 5/5/2 
f 1/9/3 4/10/3 6/11/3 
f 6/11/3 5/12/3 1/9/3 
f 4/13/4 3/14/4 7/15/4 
f 7/15/4 6/16/4 4/13/4 
f 3/17/5 2/18/5 8/19/5 
f 8/19/5 7/20/5 3/17/5 
f 2/21/6 1/22/6 5/23/6 
f 5/23/6 8/24/6 2/21/6 
# 12 faces

